<?xml version="1.0" encoding="UTF-8"?>
<svg id="Layer_2" data-name="Layer 2" xmlns="http://www.w3.org/2000/svg" viewBox="0 0 372.17 80.21">
  <defs>
    <style>
      .cls-1 {
        fill: #303030;
      }
    </style>
  </defs>
  <g id="Layer_1-2" data-name="Layer 1">
    <g>
      <g>
        <path class="cls-1" d="M127.78,60.47c-3.65,0-6.84-.76-9.57-2.29-2.74-1.53-4.87-3.68-6.39-6.45-1.53-2.77-2.29-6.04-2.29-9.81s.75-7.04,2.26-9.81c1.51-2.77,3.63-4.93,6.36-6.45,2.74-1.53,5.95-2.29,9.63-2.29,4.52,0,8.27,1.13,11.24,3.39,2.97,2.26,4.9,5.43,5.77,9.51h-8.15c-.59-1.94-1.64-3.41-3.12-4.4-1.49-.99-3.4-1.49-5.74-1.49-3.13,0-5.61,1.01-7.43,3.03-1.82,2.02-2.74,4.86-2.74,8.5s.91,6.48,2.74,8.5c1.82,2.02,4.3,3.03,7.43,3.03,4.92,0,7.93-2.16,9.04-6.48h8.15c-.79,4.32-2.68,7.65-5.65,9.99-2.97,2.34-6.82,3.51-11.54,3.51Z"/>
        <path class="cls-1" d="M166.02,60.47c-3.77,0-7.05-.76-9.84-2.29-2.79-1.53-4.95-3.7-6.45-6.51-1.51-2.81-2.26-6.1-2.26-9.87s.74-7.03,2.23-9.78c1.49-2.75,3.6-4.88,6.33-6.39s5.97-2.26,9.69-2.26,6.64.7,9.22,2.11c2.58,1.41,4.57,3.41,5.98,6.01,1.41,2.6,2.11,5.68,2.11,9.25v2.97h-27.83c.32,3.25,1.41,5.76,3.27,7.52,1.86,1.76,4.36,2.65,7.49,2.65,2.3,0,4.18-.44,5.65-1.31,1.47-.87,2.48-2.18,3.03-3.92h8.21c-.87,3.73-2.79,6.63-5.74,8.71-2.95,2.08-6.65,3.12-11.09,3.12ZM155.43,38.05h19.86c-.32-2.62-1.31-4.63-2.97-6.04-1.67-1.41-3.86-2.11-6.6-2.11s-5,.7-6.78,2.11c-1.78,1.41-2.95,3.42-3.51,6.04Z"/>
        <path class="cls-1" d="M191.17,59.76v-27.53h-4.1v-8.15h8.44v5.65h2.5c1.27-2.02,2.96-3.58,5.08-4.67,2.12-1.09,4.69-1.63,7.7-1.63,4.76,0,8.47,1.34,11.15,4.01s4.01,6.25,4.01,10.73v21.58h-8.09v-20.16c0-2.93-.78-5.17-2.35-6.72-1.57-1.55-3.88-2.32-6.93-2.32s-5.37.77-6.96,2.32c-1.59,1.55-2.38,3.79-2.38,6.72v20.16h-8.09Z"/>
        <path class="cls-1" d="M243.79,59.76c-2.18,0-3.88-.55-5.08-1.67-1.21-1.11-1.81-2.79-1.81-5.05v-22.66h-6.42v-6.3h6.48v-10.7h7.97v10.7h8.86v6.3h-8.8v23.01h9.69v6.36h-10.88Z"/>
        <path class="cls-1" d="M262.4,59.76v-27.53h-4.1v-8.15h8.44v6.84h2.5c.95-2.34,2.47-4.12,4.55-5.35,2.08-1.23,4.47-1.84,7.17-1.84h2.97v6.96h-3.33c-3.37,0-5.92.97-7.64,2.91-1.72,1.94-2.59,4.54-2.59,7.79v18.37h-7.97Z"/>
        <path class="cls-1" d="M282.86,59.76l20.51-48.16h8.8l20.4,48.16h-8.38l-5.65-13.2h-21.88l-5.65,13.2h-8.15ZM299.33,39.54h16.83l-8.26-19.68h-.3l-8.26,19.68Z"/>
        <path class="cls-1" d="M337.03,59.76V11.59h8.26v41.03h25.57v7.14h-33.83Z"/>
      </g>
      <polygon class="cls-1" points="92.54 50.39 71.96 70.97 51.44 70.97 30.88 50.39 92.54 50.39"/>
      <polygon class="cls-1" points="30.94 50.33 30.88 50.39 20.52 50.39 5.12 34.94 0 29.81 10.25 29.81 10.34 29.72 30.83 9.23 92.5 9.23 71.92 29.81 51.4 29.81 30.94 50.33"/>
    </g>
  </g>
</svg>